<?xml version="1.0" standalone="no"?>
<!DOCTYPE svg PUBLIC "-//W3C//DTD SVG 20010904//EN"
 "http://www.w3.org/TR/2001/REC-SVG-20010904/DTD/svg10.dtd">
<svg version="1.0" xmlns="http://www.w3.org/2000/svg"
 width="32.000000pt" height="32.000000pt" viewBox="0 0 838.000000 1000.000000"
 preserveAspectRatio="xMidYMid meet">
<metadata>
Created by potrace 1.15, written by Peter Selinger 2001-2017
</metadata>
<g transform="translate(0.000000,1000.000000) scale(0.100000,-0.100000)"
fill="#000000" stroke="none">
<path d="M4109 9972 c-24 -16 -56 -42 -70 -59 -37 -44 -112 -194 -147 -295
-39 -109 -114 -407 -141 -558 -69 -385 -75 -545 -68 -1891 4 -955 3 -1140 -9
-1168 -8 -18 -14 -50 -14 -71 0 -40 -31 -90 -56 -90 -17 0 -17 -1 2 46 10 25
14 55 12 86 -6 57 -15 70 -31 43 -22 -41 -116 -130 -232 -223 -66 -53 -154
-126 -195 -162 -41 -37 -80 -69 -86 -73 -7 -4 -8 16 -1 66 4 40 7 159 5 264
-4 253 11 237 -216 241 -193 4 -238 -5 -262 -53 -20 -41 -27 -407 -10 -546 11
-89 16 -103 41 -127 24 -23 29 -37 35 -97 l6 -70 -283 -226 c-156 -124 -592
-468 -969 -764 -1041 -819 -1280 -1015 -1280 -1050 0 -12 -7 -28 -15 -35 -8
-7 -15 -20 -15 -29 0 -9 -23 -54 -51 -101 -55 -92 -71 -146 -48 -164 10 -8 14
-40 15 -123 1 -62 5 -120 9 -130 6 -16 8 -14 21 10 16 29 34 36 34 13 0 -13
20 -26 40 -26 5 0 10 19 12 41 l3 42 560 253 c308 140 571 258 583 264 20 9
25 7 29 -10 3 -11 9 -20 14 -20 12 0 1312 580 1323 590 5 5 9 20 9 34 0 28 -5
27 162 51 61 9 122 18 138 21 23 5 27 2 27 -17 0 -25 -43 -28 375 26 148 19
286 35 306 35 l37 0 5 -642 c3 -496 8 -682 21 -813 23 -241 53 -460 81 -602
33 -161 32 -176 -7 -217 -28 -29 -274 -215 -930 -704 -79 -59 -144 -115 -153
-132 -13 -24 -15 -64 -13 -213 l3 -184 605 148 c333 81 611 148 618 149 6 0
12 -12 12 -26 0 -14 5 -45 11 -70 10 -38 16 -46 40 -51 18 -3 29 -12 29 -22 0
-9 7 -65 15 -125 12 -89 19 -114 38 -135 17 -18 32 -57 47 -121 50 -211 70
-211 120 0 15 64 30 103 47 121 19 21 26 46 38 135 8 60 15 116 15 125 0 10
11 19 29 22 24 5 30 13 40 51 6 25 11 56 11 70 0 14 6 26 13 26 6 -1 284 -68
617 -149 l605 -148 3 184 c2 149 0 189 -13 213 -9 17 -74 73 -153 132 -656
489 -902 675 -929 704 -40 41 -41 56 -8 217 28 142 58 361 81 602 13 131 18
317 21 813 l5 642 37 0 c20 0 158 -16 306 -35 418 -54 375 -51 375 -26 0 19 4
22 28 17 15 -3 77 -12 137 -21 171 -25 163 -22 167 -57 3 -31 5 -32 658 -324
360 -161 660 -293 666 -293 7 -1 14 8 17 19 4 17 9 19 29 10 12 -6 275 -124
583 -264 l560 -253 3 -42 c2 -22 7 -41 12 -41 20 0 40 13 40 26 0 23 18 16 34
-13 13 -24 15 -26 21 -10 4 10 8 68 9 130 1 83 5 115 15 123 23 18 7 74 -48
166 -28 46 -51 91 -51 100 0 9 -7 21 -15 28 -8 7 -15 23 -15 35 0 35 -239 231
-1280 1050 -377 296 -813 640 -969 764 l-283 226 6 70 c5 60 11 74 35 97 25
24 30 38 41 125 8 62 11 178 9 314 -4 183 -7 219 -22 242 -26 40 -78 49 -263
45 -222 -4 -208 12 -212 -241 -2 -105 1 -224 5 -264 7 -50 6 -70 -1 -66 -6 4
-45 36 -86 73 -41 36 -129 109 -195 162 -113 90 -206 180 -231 223 -16 28 -26
14 -32 -43 -2 -31 2 -61 12 -86 19 -47 19 -46 2 -46 -25 0 -56 50 -56 90 0 21
-6 52 -14 71 -11 27 -13 216 -8 1173 6 1342 0 1508 -68 1883 -28 155 -103 452
-142 561 -35 101 -110 251 -147 295 -39 46 -109 87 -151 87 -22 0 -53 -11 -81
-28z"/>
</g>
</svg>
